<svg id="Layer_1" data-name="Layer 1" xmlns="http://www.w3.org/2000/svg" xmlns:xlink="http://www.w3.org/1999/xlink" viewBox="0 0 578.74 298.58"><defs><style>.cls-1{fill:none;stroke-miterlimit:10;stroke-width:68px;stroke:url(#linear-gradient);}</style><linearGradient id="linear-gradient" x1="151.78" y1="-177.87" x2="430.18" y2="304.33" gradientTransform="translate(213.61 512.19) rotate(-90)" gradientUnits="userSpaceOnUse"><stop offset="0" stop-color="#0065b2"/><stop offset="0" stop-color="#0566b2"/><stop offset="0.05" stop-color="#3772b7"/><stop offset="0.1" stop-color="#637dba"/><stop offset="0.15" stop-color="#8986bd"/><stop offset="0.2" stop-color="#a78dc0"/><stop offset="0.26" stop-color="#be93c2"/><stop offset="0.32" stop-color="#cf97c3"/><stop offset="0.38" stop-color="#d999c4"/><stop offset="0.46" stop-color="#dc9ac4"/><stop offset="1" stop-color="#fbb36b"/></linearGradient></defs><path class="cls-1" d="M34,264.58h0M177.64,68.12c-25.77,20.52-37.77,54-72.36,62.18C95,132.74,84.3,134,74.49,138c-44.23,18-40.41,75.39-40.41,115h0v11.58H544.7V253h0c0-5.63-.14-11.26-.47-16.89C541.79,194,528.07,151.85,493.8,125,459.91,98.49,414,96.46,380,70.46,349.47,47.13,311.35,33.78,273.1,34A154.57,154.57,0,0,0,177.64,68.12Z"/></svg>