<svg id="Layer_1" data-name="Layer 1" xmlns="http://www.w3.org/2000/svg" xmlns:xlink="http://www.w3.org/1999/xlink" viewBox="0 0 689.6 264.93"><defs><style>.cls-1{fill:#7980b8;}.cls-2{fill:#d092ba;}.cls-3{fill:none;}.cls-4{fill:url(#linear-gradient);}</style><linearGradient id="linear-gradient" x1="294.28" y1="140.79" x2="470.67" y2="140.79" gradientUnits="userSpaceOnUse"><stop offset="0" stop-color="#7980b8"/><stop offset="0.01" stop-color="#7c81b8"/><stop offset="0.18" stop-color="#9a87b9"/><stop offset="0.36" stop-color="#b28cb9"/><stop offset="0.54" stop-color="#c38fba"/><stop offset="0.75" stop-color="#cd91ba"/><stop offset="1" stop-color="#d092ba"/></linearGradient></defs><path class="cls-1" d="M340.54,91.82,246.8,105.44l67.83,66.13-11.7,68.23H.34c-3.26-82.47,17.19-113.66,37.59-126.45,31.93-20,80.21,11.16,121.49-14C182.36,85.3,194.91,68,194.91,68c6.77-9.3,7.65-13.84,15.11-23.77A141.16,141.16,0,0,1,241.8,14.93c27-17.76,86.74-23.39,134.7,4Z"/><polygon class="cls-2" points="418.52 239.8 346.42 239.8 382.47 220.85 418.52 239.8"/><path class="cls-2" d="M449.35,95.45l-25-3.63L394.57,31.38C420.53,52.48,435.78,79.78,449.35,95.45Z"/><path class="cls-2" d="M689.6,239.8H462L450.3,171.57l67.84-66.13L485,100.63a85.57,85.57,0,0,1,23.53-11.92,112.57,112.57,0,0,1,13.56-3.59c4-.8,7.45-1.24,10.06-1.52,0,0,35.21-3.52,68.59,9.09C628.73,103.27,676.6,156.12,689.6,239.8Z"/><polygon class="cls-3" points="462.01 239.8 466.32 264.93 418.52 239.8 382.47 220.85 346.42 239.8 298.62 264.93 302.93 239.8 314.63 171.57 246.8 105.44 340.54 91.82 376.5 18.97 382.47 6.87 394.57 31.38 424.39 91.82 449.35 95.45 485 100.63 518.14 105.44 450.3 171.57 462.01 239.8"/><polygon class="cls-4" points="434.18 208.33 436.98 224.67 405.91 208.33 382.47 196.01 359.04 208.33 327.96 224.67 330.77 208.33 338.37 163.98 294.28 120.99 355.22 112.13 378.59 64.78 382.47 56.91 390.34 72.84 409.73 112.13 425.95 114.49 449.13 117.86 470.67 120.99 426.57 163.98 434.18 208.33"/></svg>